{
  "accessors": [
    {
      "bufferView": 2,
      "componentType": 5126,
      "count": 6319,
      "max": [
        4.1023712158203125,
        4.172369956970215,
        12.598135948181152
      ],
      "min": [
        -4.102369785308838,
        -2.5049049854278564,
        -1.1702150106430054
      ],
      "type": "VEC3"
    },
    {
      "bufferView": 2,
      "byteOffset": 75828,
      "componentType": 5126,
      "count": 6319,
      "max": [
        0.9999414682388306,
        0.9996435046195984,
        0.9999350309371948
      ],
      "min": [
        -0.9993711709976196,
        -0.9998736381530762,
        -0.9998288750648499
      ],
      "type": "VEC3"
    },
    {
      "bufferView": 1,
      "componentType": 5126,
      "count": 6319,
      "max": [
        0.9991790056228638,
        0.9972079992294312
      ],
      "min": [
        0.0,
        -0.9947839975357056
      ],
      "type": "VEC2"
    },
    {
      "bufferView": 0,
      "componentType": 5125,
      "count": 25491,
      "type": "SCALAR"
    },
    {
      "bufferView": 2,
      "byteOffset": 151656,
      "componentType": 5126,
      "count": 1103,
      "max": [
        2.7058188915252686,
        4.337971210479736,
        11.505058288574219
      ],
      "min": [
        -2.8225059509277344,
        -1.634971022605896,
        -1.4310920238494873
      ],
      "type": "VEC3"
    },
    {
      "bufferView": 2,
      "byteOffset": 164892,
      "componentType": 5126,
      "count": 1103,
      "max": [
        0.9633956551551819,
        0.9943366050720215,
        0.9999996423721313
      ],
      "min": [
        -0.9944664239883423,
        -0.9951857328414917,
        -0.9999996423721313
      ],
      "type": "VEC3"
    },
    {
      "bufferView": 1,
      "byteOffset": 50552,
      "componentType": 5126,
      "count": 1103,
      "max": [
        0.9970830082893372,
        0.9872829914093018
      ],
      "min": [
        0.008182000368833542,
        0.01756799966096878
      ],
      "type": "VEC2"
    },
    {
      "bufferView": 0,
      "byteOffset": 101964,
      "componentType": 5125,
      "count": 2784,
      "type": "SCALAR"
    }
  ],
  "asset": {
    "extras": {
      "author": "Neut2000 (https://sketchfab.com/Neut2000)",
      "license": "CC-BY-4.0 (http://creativecommons.org/licenses/by/4.0/)",
      "source": "https://sketchfab.com/3d-models/pocket-shrek-puss-in-boots-0cdfeb5537ae4047b983259c8909bcde",
      "title": "Pocket Shrek Puss in boots"
    },
    "generator": "Sketchfab-11.49.0",
    "version": "2.0"
  },
  "bufferViews": [
    {
      "buffer": 0,
      "byteLength": 113100,
      "name": "floatBufferViews",
      "target": 34963
    },
    {
      "buffer": 0,
      "byteLength": 59376,
      "byteOffset": 113100,
      "byteStride": 8,
      "name": "floatBufferViews",
      "target": 34962
    },
    {
      "buffer": 0,
      "byteLength": 178128,
      "byteOffset": 172476,
      "byteStride": 12,
      "name": "floatBufferViews",
      "target": 34962
    }
  ],
  "buffers": [
    {
      "byteLength": 350604,
      "uri": "scene.bin"
    }
  ],
  "images": [
    {
      "uri": "textures/Material.001_baseColor.png"
    },
    {
      "uri": "textures/Material.002_baseColor.png"
    }
  ],
  "materials": [
    {
      "doubleSided": true,
      "name": "Material.001",
      "pbrMetallicRoughness": {
        "baseColorTexture": {
          "index": 0
        },
        "metallicFactor": 0.0,
        "roughnessFactor": 0.8434915419926713
      }
    },
    {
      "doubleSided": true,
      "name": "Material.002",
      "pbrMetallicRoughness": {
        "baseColorTexture": {
          "index": 1
        },
        "metallicFactor": 0.0,
        "roughnessFactor": 0.8434915419926713
      }
    }
  ],
  "meshes": [
    {
      "name": "Object_0",
      "primitives": [
        {
          "attributes": {
            "NORMAL": 1,
            "POSITION": 0,
            "TEXCOORD_0": 2
          },
          "indices": 3,
          "material": 0,
          "mode": 4
        }
      ]
    },
    {
      "name": "Object_1",
      "primitives": [
        {
          "attributes": {
            "NORMAL": 5,
            "POSITION": 4,
            "TEXCOORD_0": 6
          },
          "indices": 7,
          "material": 1,
          "mode": 4
        }
      ]
    }
  ],
  "nodes": [
    {
      "children": [
        1
      ],
      "matrix": [
        1.0,
        0.0,
        0.0,
        0.0,
        0.0,
        2.220446049250313e-16,
        -1.0,
        0.0,
        0.0,
        1.0,
        2.220446049250313e-16,
        0.0,
        0.0,
        0.0,
        0.0,
        1.0
      ],
      "name": "Sketchfab_model"
    },
    {
      "children": [
        2,
        3
      ],
      "name": "Puss.obj.cleaner.materialmerger.gles"
    },
    {
      "mesh": 0,
      "name": "Object_2"
    },
    {
      "mesh": 1,
      "name": "Object_3"
    }
  ],
  "samplers": [
    {
      "magFilter": 9729,
      "minFilter": 9987,
      "wrapS": 10497,
      "wrapT": 10497
    }
  ],
  "scene": 0,
  "scenes": [
    {
      "name": "Sketchfab_Scene",
      "nodes": [
        0
      ]
    }
  ],
  "textures": [
    {
      "sampler": 0,
      "source": 0
    },
    {
      "sampler": 0,
      "source": 1
    }
  ]
}
