{
  "accessors": [
    {
      "bufferView": 2,
      "componentType": 5126,
      "count": 3744,
      "max": [
        0.6856275200843811,
        0.1642162948846817,
        1.6330499649047852
      ],
      "min": [
        -0.6856275200843811,
        -0.25882008671760559,
        1.0438309907913208
      ],
      "type": "VEC3"
    },
    {
      "bufferView": 2,
      "byteOffset": 44928,
      "componentType": 5126,
      "count": 3744,
      "max": [
        0.99982130527496338,
        0.99996477365493774,
        0.99998664855957031
      ],
      "min": [
        -0.99981725215911865,
        -0.99990355968475342,
        -0.99988985061645508
      ],
      "type": "VEC3"
    },
    {
      "bufferView": 3,
      "componentType": 5126,
      "count": 3744,
      "max": [
        1,
        0.9961884617805481,
        0.99996465444564819,
        1
      ],
      "min": [
        -0.99940675497055054,
        -0.99962210655212402,
        -0.99981927871704102,
        -1
      ],
      "type": "VEC4"
    },
    {
      "bufferView": 1,
      "componentType": 5126,
      "count": 3744,
      "max": [
        0.99804699420928955,
        1.9951440095901489
      ],
      "min": [
        0.0030593900009989738,
        1.0053709745407104
      ],
      "type": "VEC2"
    },
    {
      "bufferView": 0,
      "componentType": 5125,
      "count": 18408,
      "max": [
        3743
      ],
      "min": [
        0
      ],
      "type": "SCALAR"
    },
    {
      "bufferView": 2,
      "byteOffset": 89856,
      "componentType": 5126,
      "count": 4438,
      "max": [
        0.25899150967597961,
        0.16346439719200134,
        1.2377099990844727
      ],
      "min": [
        -0.25899150967597961,
        -0.1796066015958786,
        -0.0031920189503580332
      ],
      "type": "VEC3"
    },
    {
      "bufferView": 2,
      "byteOffset": 143112,
      "componentType": 5126,
      "count": 4438,
      "max": [
        0.9998699426651001,
        0.99977630376815796,
        0.99990582466125488
      ],
      "min": [
        -0.99986982345581055,
        -0.99980700016021729,
        -0.99984121322631836
      ],
      "type": "VEC3"
    },
    {
      "bufferView": 3,
      "byteOffset": 59904,
      "componentType": 5126,
      "count": 4438,
      "max": [
        1,
        0.99998891353607178,
        0.99953091144561768,
        1
      ],
      "min": [
        -0.99996906518936157,
        -0.9999963641166687,
        -0.9994775652885437,
        -1
      ],
      "type": "VEC4"
    },
    {
      "bufferView": 1,
      "byteOffset": 29952,
      "componentType": 5126,
      "count": 4438,
      "max": [
        0.99511700868606567,
        1.9962140321731567
      ],
      "min": [
        0.0047683701850473881,
        1.0048830509185791
      ],
      "type": "VEC2"
    },
    {
      "bufferView": 0,
      "byteOffset": 73632,
      "componentType": 5125,
      "count": 21402,
      "max": [
        4437
      ],
      "min": [
        0
      ],
      "type": "SCALAR"
    },
    {
      "bufferView": 2,
      "byteOffset": 196368,
      "componentType": 5126,
      "count": 1345,
      "max": [
        0.065989866852760315,
        -0.055507119745016098,
        1.8043719530105591
      ],
      "min": [
        -0.065989866852760315,
        -0.13192200660705566,
        1.6798199415206909
      ],
      "type": "VEC3"
    },
    {
      "bufferView": 2,
      "byteOffset": 212508,
      "componentType": 5126,
      "count": 1345,
      "max": [
        0.99559909105300903,
        0.98885321617126465,
        0.99934041500091553
      ],
      "min": [
        -0.99559909105300903,
        -0.99993818998336792,
        -0.99856835603713989
      ],
      "type": "VEC3"
    },
    {
      "bufferView": 3,
      "byteOffset": 130912,
      "componentType": 5126,
      "count": 1345,
      "max": [
        0.99990946054458618,
        0.99958211183547974,
        0.98915588855743408,
        1
      ],
      "min": [
        -0.99990898370742798,
        -0.99134480953216553,
        -0.99366140365600586,
        -1
      ],
      "type": "VEC4"
    },
    {
      "bufferView": 1,
      "byteOffset": 65456,
      "componentType": 5126,
      "count": 1345,
      "max": [
        0.96972697973251343,
        1.9954609870910645
      ],
      "min": [
        0.02374269999563694,
        1.0942380428314209
      ],
      "type": "VEC2"
    },
    {
      "bufferView": 0,
      "byteOffset": 159240,
      "componentType": 5125,
      "count": 6270,
      "max": [
        1344
      ],
      "min": [
        0
      ],
      "type": "SCALAR"
    },
    {
      "bufferView": 2,
      "byteOffset": 228648,
      "componentType": 5126,
      "count": 288,
      "max": [
        0.044098120182752609,
        -0.07720649242401123,
        1.808974027633667
      ],
      "min": [
        -0.044098120182752609,
        -0.098155133426189423,
        1.7833089828491211
      ],
      "type": "VEC3"
    },
    {
      "bufferView": 2,
      "byteOffset": 232104,
      "componentType": 5126,
      "count": 288,
      "max": [
        1,
        0.51433300971984863,
        1
      ],
      "min": [
        -1,
        -1,
        -1
      ],
      "type": "VEC3"
    },
    {
      "bufferView": 3,
      "byteOffset": 152432,
      "componentType": 5126,
      "count": 288,
      "max": [
        0.99022591114044189,
        1,
        1,
        1
      ],
      "min": [
        -0.99022591114044189,
        -1,
        -0.13946057856082916,
        -1
      ],
      "type": "VEC4"
    },
    {
      "bufferView": 1,
      "byteOffset": 76216,
      "componentType": 5126,
      "count": 288,
      "max": [
        1,
        1.9999179840087891
      ],
      "min": [
        3.0517599952872843e-05,
        1
      ],
      "type": "VEC2"
    },
    {
      "bufferView": 0,
      "byteOffset": 184320,
      "componentType": 5125,
      "count": 1404,
      "max": [
        287
      ],
      "min": [
        0
      ],
      "type": "SCALAR"
    },
    {
      "bufferView": 2,
      "byteOffset": 235560,
      "componentType": 5126,
      "count": 1576,
      "max": [
        0.19673739373683929,
        0.16080859303474426,
        2.0200009346008301
      ],
      "min": [
        -0.19673739373683929,
        -0.1371690034866333,
        1.5716960430145264
      ],
      "type": "VEC3"
    },
    {
      "bufferView": 2,
      "byteOffset": 254472,
      "componentType": 5126,
      "count": 1576,
      "max": [
        0.99905234575271606,
        0.99854499101638794,
        0.9999123215675354
      ],
      "min": [
        -0.99905234575271606,
        -0.9999997615814209,
        -0.9915168285369873
      ],
      "type": "VEC3"
    },
    {
      "bufferView": 3,
      "byteOffset": 157040,
      "componentType": 5126,
      "count": 1576,
      "max": [
        0.99997007846832275,
        0.99114322662353516,
        0.99854493141174316,
        1
      ],
      "min": [
        -0.99997007846832275,
        -0.99996018409729004,
        -0.99999970197677612,
        -1
      ],
      "type": "VEC4"
    },
    {
      "bufferView": 1,
      "byteOffset": 78520,
      "componentType": 5126,
      "count": 1576,
      "max": [
        0.61572301387786865,
        1.9954220056533813
      ],
      "min": [
        0.012664799578487873,
        1.0102540254592896
      ],
      "type": "VEC2"
    },
    {
      "bufferView": 0,
      "byteOffset": 189936,
      "componentType": 5125,
      "count": 8412,
      "max": [
        1575
      ],
      "min": [
        0
      ],
      "type": "SCALAR"
    },
    {
      "bufferView": 2,
      "byteOffset": 273384,
      "componentType": 5126,
      "count": 573,
      "max": [
        7.7928743849042803e-06,
        0.62521868944168091,
        1.6397769451141357
      ],
      "min": [
        -0.73550248146057129,
        -0.094559237360954285,
        -0.13744990527629852
      ],
      "type": "VEC3"
    },
    {
      "bufferView": 2,
      "byteOffset": 280260,
      "componentType": 5126,
      "count": 573,
      "max": [
        0.30055862665176392,
        0.98820716142654419,
        0.99502849578857422
      ],
      "min": [
        -0.878093421459198,
        -0.94865882396697998,
        0.12402888387441635
      ],
      "type": "VEC3"
    },
    {
      "bufferView": 3,
      "byteOffset": 182256,
      "componentType": 5126,
      "count": 573,
      "max": [
        0.37390226125717163,
        0.28306964039802551,
        0.27000132203102112,
        1
      ],
      "min": [
        -0.99958360195159912,
        -0.78677093982696533,
        -0.97480481863021851,
        1
      ],
      "type": "VEC4"
    },
    {
      "bufferView": 1,
      "byteOffset": 91128,
      "componentType": 5126,
      "count": 573,
      "max": [
        0.98974597454071045,
        1.994488000869751
      ],
      "min": [
        0.49877899885177612,
        1.0009770393371582
      ],
      "type": "VEC2"
    },
    {
      "bufferView": 0,
      "byteOffset": 223584,
      "componentType": 5125,
      "count": 3087,
      "max": [
        572
      ],
      "min": [
        0
      ],
      "type": "SCALAR"
    },
    {
      "bufferView": 2,
      "byteOffset": 287136,
      "componentType": 5126,
      "count": 573,
      "max": [
        0.73536002635955811,
        0.62521868944168091,
        1.6397769451141357
      ],
      "min": [
        -9.0520488811307587e-06,
        -0.094559237360954285,
        -0.13744160532951355
      ],
      "type": "VEC3"
    },
    {
      "bufferView": 2,
      "byteOffset": 294012,
      "componentType": 5126,
      "count": 573,
      "max": [
        0.878093421459198,
        0.98821741342544556,
        0.99502849578857422
      ],
      "min": [
        -0.30055862665176392,
        -0.94865882396697998,
        0.12500664591789246
      ],
      "type": "VEC3"
    },
    {
      "bufferView": 3,
      "byteOffset": 191424,
      "componentType": 5126,
      "count": 573,
      "max": [
        0.25541701912879944,
        0.77533429861068726,
        0.97030603885650635,
        1
      ],
      "min": [
        -0.99979311227798462,
        -0.24114295840263367,
        -0.31186053156852722,
        1
      ],
      "type": "VEC4"
    },
    {
      "bufferView": 1,
      "byteOffset": 95712,
      "componentType": 5126,
      "count": 573,
      "max": [
        0.5043950080871582,
        1.9908289909362793
      ],
      "min": [
        0.013473499566316605,
        1.0004880428314209
      ],
      "type": "VEC2"
    },
    {
      "bufferView": 0,
      "byteOffset": 235932,
      "componentType": 5125,
      "count": 3087,
      "max": [
        572
      ],
      "min": [
        0
      ],
      "type": "SCALAR"
    }
  ],
  "asset": {
    "extras": {
      "author": "EWTube0 (https://sketchfab.com/EWTube0)",
      "license": "CC-BY-4.0 (http://creativecommons.org/licenses/by/4.0/)",
      "source": "https://sketchfab.com/3d-models/batman-arkham-city-batman-2588f1a154ae4e38a3e41766a7a40975",
      "title": "Batman Arkham City: Batman"
    },
    "generator": "Sketchfab-10.10.1-rc1",
    "version": "2.0"
  },
  "bufferViews": [
    {
      "buffer": 0,
      "byteLength": 248280,
      "byteOffset": 0,
      "name": "floatBufferViews",
      "target": 34963
    },
    {
      "buffer": 0,
      "byteLength": 100296,
      "byteOffset": 248280,
      "byteStride": 8,
      "name": "floatBufferViews",
      "target": 34962
    },
    {
      "buffer": 0,
      "byteLength": 300888,
      "byteOffset": 348576,
      "byteStride": 12,
      "name": "floatBufferViews",
      "target": 34962
    },
    {
      "buffer": 0,
      "byteLength": 200592,
      "byteOffset": 649464,
      "byteStride": 16,
      "name": "floatBufferViews",
      "target": 34962
    }
  ],
  "buffers": [
    {
      "byteLength": 850056,
      "uri": "scene.bin"
    }
  ],
  "images": [
    {
      "uri": "textures/Model001_Material001_baseColor.png"
    },
    {
      "uri": "textures/Model001_Material001_normal.png"
    },
    {
      "uri": "textures/Model001_Material002_baseColor.png"
    },
    {
      "uri": "textures/Model001_Material002_normal.png"
    },
    {
      "uri": "textures/Model001_Material003_baseColor.png"
    },
    {
      "uri": "textures/Model001_Material003_normal.png"
    },
    {
      "uri": "textures/Model001_Material004_baseColor.png"
    },
    {
      "uri": "textures/Model001_Material004_normal.png"
    },
    {
      "uri": "textures/Model001_Material006_baseColor.png"
    },
    {
      "uri": "textures/Model001_Material006_normal.png"
    }
  ],
  "materials": [
    {
      "doubleSided": true,
      "emissiveFactor": [
        0,
        0,
        0
      ],
      "name": "Model001_Material001",
      "normalTexture": {
        "index": 1,
        "scale": 1,
        "texCoord": 0
      },
      "pbrMetallicRoughness": {
        "baseColorFactor": [
          1,
          1,
          1,
          1
        ],
        "baseColorTexture": {
          "index": 0,
          "texCoord": 0
        },
        "metallicFactor": 0,
        "roughnessFactor": 1
      }
    },
    {
      "doubleSided": true,
      "emissiveFactor": [
        0,
        0,
        0
      ],
      "name": "Model001_Material002",
      "normalTexture": {
        "index": 3,
        "scale": 1,
        "texCoord": 0
      },
      "pbrMetallicRoughness": {
        "baseColorFactor": [
          1,
          1,
          1,
          1
        ],
        "baseColorTexture": {
          "index": 2,
          "texCoord": 0
        },
        "metallicFactor": 0,
        "roughnessFactor": 1
      }
    },
    {
      "doubleSided": true,
      "emissiveFactor": [
        0,
        0,
        0
      ],
      "name": "Model001_Material003",
      "normalTexture": {
        "index": 5,
        "scale": 1,
        "texCoord": 0
      },
      "pbrMetallicRoughness": {
        "baseColorFactor": [
          1,
          1,
          1,
          1
        ],
        "baseColorTexture": {
          "index": 4,
          "texCoord": 0
        },
        "metallicFactor": 0,
        "roughnessFactor": 1
      }
    },
    {
      "doubleSided": true,
      "emissiveFactor": [
        0,
        0,
        0
      ],
      "name": "Model001_Material004",
      "normalTexture": {
        "index": 7,
        "scale": 1,
        "texCoord": 0
      },
      "pbrMetallicRoughness": {
        "baseColorFactor": [
          1,
          1,
          1,
          1
        ],
        "baseColorTexture": {
          "index": 6,
          "texCoord": 0
        },
        "metallicFactor": 0,
        "roughnessFactor": 1
      }
    },
    {
      "doubleSided": true,
      "emissiveFactor": [
        0,
        0,
        0
      ],
      "name": "Model001_Material005",
      "normalTexture": {
        "index": 3,
        "scale": 1,
        "texCoord": 0
      },
      "pbrMetallicRoughness": {
        "baseColorFactor": [
          1,
          1,
          1,
          1
        ],
        "baseColorTexture": {
          "index": 2,
          "texCoord": 0
        },
        "metallicFactor": 0,
        "roughnessFactor": 1
      }
    },
    {
      "doubleSided": true,
      "emissiveFactor": [
        0,
        0,
        0
      ],
      "name": "Model001_Material006",
      "normalTexture": {
        "index": 9,
        "scale": 1,
        "texCoord": 0
      },
      "pbrMetallicRoughness": {
        "baseColorFactor": [
          1,
          1,
          1,
          1
        ],
        "baseColorTexture": {
          "index": 8,
          "texCoord": 0
        },
        "metallicFactor": 0,
        "roughnessFactor": 1
      }
    },
    {
      "doubleSided": true,
      "emissiveFactor": [
        0,
        0,
        0
      ],
      "name": "Model001_Material007",
      "normalTexture": {
        "index": 9,
        "scale": 1,
        "texCoord": 0
      },
      "pbrMetallicRoughness": {
        "baseColorFactor": [
          1,
          1,
          1,
          1
        ],
        "baseColorTexture": {
          "index": 8,
          "texCoord": 0
        },
        "metallicFactor": 0,
        "roughnessFactor": 1
      }
    }
  ],
  "meshes": [
    {
      "primitives": [
        {
          "attributes": {
            "NORMAL": 1,
            "POSITION": 0,
            "TANGENT": 2,
            "TEXCOORD_0": 3
          },
          "indices": 4,
          "material": 0,
          "mode": 4
        }
      ]
    },
    {
      "primitives": [
        {
          "attributes": {
            "NORMAL": 6,
            "POSITION": 5,
            "TANGENT": 7,
            "TEXCOORD_0": 8
          },
          "indices": 9,
          "material": 1,
          "mode": 4
        }
      ]
    },
    {
      "primitives": [
        {
          "attributes": {
            "NORMAL": 11,
            "POSITION": 10,
            "TANGENT": 12,
            "TEXCOORD_0": 13
          },
          "indices": 14,
          "material": 2,
          "mode": 4
        }
      ]
    },
    {
      "primitives": [
        {
          "attributes": {
            "NORMAL": 16,
            "POSITION": 15,
            "TANGENT": 17,
            "TEXCOORD_0": 18
          },
          "indices": 19,
          "material": 3,
          "mode": 4
        }
      ]
    },
    {
      "primitives": [
        {
          "attributes": {
            "NORMAL": 21,
            "POSITION": 20,
            "TANGENT": 22,
            "TEXCOORD_0": 23
          },
          "indices": 24,
          "material": 4,
          "mode": 4
        }
      ]
    },
    {
      "primitives": [
        {
          "attributes": {
            "NORMAL": 26,
            "POSITION": 25,
            "TANGENT": 27,
            "TEXCOORD_0": 28
          },
          "indices": 29,
          "material": 5,
          "mode": 4
        }
      ]
    },
    {
      "primitives": [
        {
          "attributes": {
            "NORMAL": 31,
            "POSITION": 30,
            "TANGENT": 32,
            "TEXCOORD_0": 33
          },
          "indices": 34,
          "material": 6,
          "mode": 4
        }
      ]
    }
  ],
  "nodes": [
    {
      "children": [
        1
      ],
      "name": "RootNode (gltf orientation matrix)",
      "rotation": [
        -0.70710678118654746,
        -0,
        -0,
        0.70710678118654757
      ]
    },
    {
      "children": [
        2
      ],
      "name": "RootNode (model correction matrix)"
    },
    {
      "children": [
        3,
        4,
        5,
        6,
        7,
        8,
        9
      ],
      "name": "Batman Arkham City Batman.obj.cleaner.materialmerger.gles"
    },
    {
      "mesh": 0,
      "name": ""
    },
    {
      "mesh": 1,
      "name": ""
    },
    {
      "mesh": 2,
      "name": ""
    },
    {
      "mesh": 3,
      "name": ""
    },
    {
      "mesh": 4,
      "name": ""
    },
    {
      "mesh": 5,
      "name": ""
    },
    {
      "mesh": 6,
      "name": ""
    }
  ],
  "samplers": [
    {
      "magFilter": 9729,
      "minFilter": 9987,
      "wrapS": 10497,
      "wrapT": 10497
    }
  ],
  "scene": 0,
  "scenes": [
    {
      "name": "OSG_Scene",
      "nodes": [
        0
      ]
    }
  ],
  "textures": [
    {
      "sampler": 0,
      "source": 0
    },
    {
      "sampler": 0,
      "source": 1
    },
    {
      "sampler": 0,
      "source": 2
    },
    {
      "sampler": 0,
      "source": 3
    },
    {
      "sampler": 0,
      "source": 4
    },
    {
      "sampler": 0,
      "source": 5
    },
    {
      "sampler": 0,
      "source": 6
    },
    {
      "sampler": 0,
      "source": 7
    },
    {
      "sampler": 0,
      "source": 8
    },
    {
      "sampler": 0,
      "source": 9
    }
  ]
}

