{
  "accessors": [
    {
      "bufferView": 0,
      "componentType": 5125,
      "count": 3018,
      "type": "SCALAR"
    },
    {
      "bufferView": 1,
      "componentType": 5126,
      "count": 853,
      "max": [
        0.149468630552292,
        0.278497606515884,
        -0.0907410085201263
      ],
      "min": [
        -0.149468630552292,
        0.0887174233794212,
        -0.279793262481689
      ],
      "type": "VEC3"
    },
    {
      "bufferView": 2,
      "componentType": 5126,
      "count": 853,
      "type": "VEC3"
    },
    {
      "bufferView": 3,
      "componentType": 5126,
      "count": 853,
      "type": "VEC2"
    },
    {
      "bufferView": 4,
      "componentType": 5125,
      "count": 4560,
      "type": "SCALAR"
    },
    {
      "bufferView": 5,
      "componentType": 5126,
      "count": 804,
      "max": [
        0.0557723119854927,
        0.848129272460938,
        0.125331193208694
      ],
      "min": [
        -0.0557723119854927,
        0.811238884925842,
        0.0890522599220276
      ],
      "type": "VEC3"
    },
    {
      "bufferView": 6,
      "componentType": 5126,
      "count": 804,
      "type": "VEC3"
    },
    {
      "bufferView": 7,
      "componentType": 5126,
      "count": 804,
      "type": "VEC2"
    },
    {
      "bufferView": 8,
      "componentType": 5125,
      "count": 11406,
      "type": "SCALAR"
    },
    {
      "bufferView": 9,
      "componentType": 5126,
      "count": 2058,
      "max": [
        0.0794729962944984,
        0.91748434305191,
        0.160096079111099
      ],
      "min": [
        -0.0794729962944984,
        0.703945279121399,
        0.0735915005207062
      ],
      "type": "VEC3"
    },
    {
      "bufferView": 10,
      "componentType": 5126,
      "count": 2058,
      "type": "VEC3"
    },
    {
      "bufferView": 11,
      "componentType": 5126,
      "count": 2058,
      "type": "VEC2"
    },
    {
      "bufferView": 12,
      "componentType": 5125,
      "count": 81666,
      "type": "SCALAR"
    },
    {
      "bufferView": 13,
      "componentType": 5126,
      "count": 20943,
      "max": [
        0.43952539563179,
        0.771174848079681,
        0.175615087151527
      ],
      "min": [
        -0.439612746238708,
        -1.0,
        -0.177012667059898
      ],
      "type": "VEC3"
    },
    {
      "bufferView": 14,
      "componentType": 5126,
      "count": 20943,
      "type": "VEC3"
    },
    {
      "bufferView": 15,
      "componentType": 5126,
      "count": 20943,
      "type": "VEC2"
    },
    {
      "bufferView": 16,
      "componentType": 5125,
      "count": 30312,
      "type": "SCALAR"
    },
    {
      "bufferView": 17,
      "componentType": 5126,
      "count": 8284,
      "max": [
        0.578293800354004,
        0.395632565021515,
        0.279793262481689
      ],
      "min": [
        -0.578293800354004,
        0.0967244133353233,
        -0.0489008575677872
      ],
      "type": "VEC3"
    },
    {
      "bufferView": 18,
      "componentType": 5126,
      "count": 8284,
      "type": "VEC3"
    },
    {
      "bufferView": 19,
      "componentType": 5126,
      "count": 8284,
      "type": "VEC2"
    },
    {
      "bufferView": 20,
      "componentType": 5125,
      "count": 17598,
      "type": "SCALAR"
    },
    {
      "bufferView": 21,
      "componentType": 5126,
      "count": 4988,
      "max": [
        0.117033049464226,
        1.0,
        0.200218364596367
      ],
      "min": [
        -0.117033049464226,
        0.673897206783295,
        -0.106580287218094
      ],
      "type": "VEC3"
    },
    {
      "bufferView": 22,
      "componentType": 5126,
      "count": 4988,
      "type": "VEC3"
    },
    {
      "bufferView": 23,
      "componentType": 5126,
      "count": 4988,
      "type": "VEC2"
    }
  ],
  "asset": {
    "generator": "Substance Painter 2019.3.3",
    "version": "2.0"
  },
  "bufferViews": [
    {
      "buffer": 0,
      "byteLength": 12072,
      "target": 34963
    },
    {
      "buffer": 0,
      "byteLength": 10236,
      "byteOffset": 12072,
      "target": 34962
    },
    {
      "buffer": 0,
      "byteLength": 10236,
      "byteOffset": 22308,
      "target": 34962
    },
    {
      "buffer": 0,
      "byteLength": 6824,
      "byteOffset": 32544,
      "target": 34962
    },
    {
      "buffer": 0,
      "byteLength": 18240,
      "byteOffset": 39368,
      "target": 34963
    },
    {
      "buffer": 0,
      "byteLength": 9648,
      "byteOffset": 57608,
      "target": 34962
    },
    {
      "buffer": 0,
      "byteLength": 9648,
      "byteOffset": 67256,
      "target": 34962
    },
    {
      "buffer": 0,
      "byteLength": 6432,
      "byteOffset": 76904,
      "target": 34962
    },
    {
      "buffer": 0,
      "byteLength": 45624,
      "byteOffset": 83336,
      "target": 34963
    },
    {
      "buffer": 0,
      "byteLength": 24696,
      "byteOffset": 128960,
      "target": 34962
    },
    {
      "buffer": 0,
      "byteLength": 24696,
      "byteOffset": 153656,
      "target": 34962
    },
    {
      "buffer": 0,
      "byteLength": 16464,
      "byteOffset": 178352,
      "target": 34962
    },
    {
      "buffer": 0,
      "byteLength": 326664,
      "byteOffset": 194816,
      "target": 34963
    },
    {
      "buffer": 0,
      "byteLength": 251316,
      "byteOffset": 521480,
      "target": 34962
    },
    {
      "buffer": 0,
      "byteLength": 251316,
      "byteOffset": 772796,
      "target": 34962
    },
    {
      "buffer": 0,
      "byteLength": 167544,
      "byteOffset": 1024112,
      "target": 34962
    },
    {
      "buffer": 0,
      "byteLength": 121248,
      "byteOffset": 1191656,
      "target": 34963
    },
    {
      "buffer": 0,
      "byteLength": 99408,
      "byteOffset": 1312904,
      "target": 34962
    },
    {
      "buffer": 0,
      "byteLength": 99408,
      "byteOffset": 1412312,
      "target": 34962
    },
    {
      "buffer": 0,
      "byteLength": 66272,
      "byteOffset": 1511720,
      "target": 34962
    },
    {
      "buffer": 0,
      "byteLength": 70392,
      "byteOffset": 1577992,
      "target": 34963
    },
    {
      "buffer": 0,
      "byteLength": 59856,
      "byteOffset": 1648384,
      "target": 34962
    },
    {
      "buffer": 0,
      "byteLength": 59856,
      "byteOffset": 1708240,
      "target": 34962
    },
    {
      "buffer": 0,
      "byteLength": 39904,
      "byteOffset": 1768096,
      "target": 34962
    }
  ],
  "buffers": [
    {
      "byteLength": 1808000,
      "uri": "wraith.bin"
    }
  ],
  "images": [
    {
      "uri": "wraith_body_cyberninja_baseColor.png"
    },
    {
      "uri": "wraith_body_cyberninja_occlusionRoughnessMetallic.png"
    },
    {
      "uri": "wraith_body_cyberninja_normal.png"
    },
    {
      "uri": "wraith_eye_base_baseColor.png"
    },
    {
      "uri": "wraith_eye_base_occlusionRoughnessMetallic.png"
    },
    {
      "uri": "wraith_eye_base_normal.png"
    },
    {
      "uri": "wraith_gauntlet_cyberninja_baseColor.png"
    },
    {
      "uri": "wraith_gauntlet_cyberninja_occlusionRoughnessMetallic.png"
    },
    {
      "uri": "wraith_gauntlet_cyberninja_normal.png"
    },
    {
      "uri": "wraith_gauntlet_cyberninja_emissive.png"
    },
    {
      "uri": "wraith_head_baseColor.png"
    },
    {
      "uri": "wraith_head_occlusionRoughnessMetallic.png"
    },
    {
      "uri": "wraith_head_normal.png"
    },
    {
      "uri": "wraith_helm_cyberninja_baseColor.png"
    },
    {
      "uri": "wraith_helm_cyberninja_occlusionRoughnessMetallic.png"
    },
    {
      "uri": "wraith_helm_cyberninja_normal.png"
    },
    {
      "uri": "wraith_helm_cyberninja_emissive.png"
    },
    {
      "uri": "wraith_jumpkit_cyberninja_baseColor.png"
    },
    {
      "uri": "wraith_jumpkit_cyberninja_occlusionRoughnessMetallic.png"
    },
    {
      "uri": "wraith_jumpkit_cyberninja_normal.png"
    }
  ],
  "materials": [
    {
      "alphaMode": "OPAQUE",
      "name": "wraith_body_cyberninja",
      "normalTexture": {
        "index": 2
      },
      "occlusionTexture": {
        "index": 1
      },
      "pbrMetallicRoughness": {
        "baseColorTexture": {
          "index": 0
        },
        "metallicRoughnessTexture": {
          "index": 1
        }
      }
    },
    {
      "alphaMode": "OPAQUE",
      "name": "wraith_eye_base",
      "normalTexture": {
        "index": 5
      },
      "occlusionTexture": {
        "index": 4
      },
      "pbrMetallicRoughness": {
        "baseColorTexture": {
          "index": 3
        },
        "metallicRoughnessTexture": {
          "index": 4
        }
      }
    },
    {
      "alphaMode": "OPAQUE",
      "emissiveFactor": [
        1.0,
        1.0,
        1.0
      ],
      "emissiveTexture": {
        "index": 9
      },
      "name": "wraith_gauntlet_cyberninja",
      "normalTexture": {
        "index": 8
      },
      "occlusionTexture": {
        "index": 7
      },
      "pbrMetallicRoughness": {
        "baseColorTexture": {
          "index": 6
        },
        "metallicRoughnessTexture": {
          "index": 7
        }
      }
    },
    {
      "alphaMode": "OPAQUE",
      "name": "wraith_head",
      "normalTexture": {
        "index": 12
      },
      "occlusionTexture": {
        "index": 11
      },
      "pbrMetallicRoughness": {
        "baseColorTexture": {
          "index": 10
        },
        "metallicRoughnessTexture": {
          "index": 11
        }
      }
    },
    {
      "alphaMode": "OPAQUE",
      "emissiveFactor": [
        1.0,
        1.0,
        1.0
      ],
      "emissiveTexture": {
        "index": 16
      },
      "name": "wraith_helm_cyberninja",
      "normalTexture": {
        "index": 15
      },
      "occlusionTexture": {
        "index": 14
      },
      "pbrMetallicRoughness": {
        "baseColorTexture": {
          "index": 13
        },
        "metallicRoughnessTexture": {
          "index": 14
        }
      }
    },
    {
      "alphaMode": "OPAQUE",
      "name": "wraith_jumpkit_cyberninja",
      "normalTexture": {
        "index": 19
      },
      "occlusionTexture": {
        "index": 18
      },
      "pbrMetallicRoughness": {
        "baseColorTexture": {
          "index": 17
        },
        "metallicRoughnessTexture": {
          "index": 18
        }
      }
    }
  ],
  "meshes": [
    {
      "name": "jumpkit",
      "primitives": [
        {
          "attributes": {
            "NORMAL": 2,
            "POSITION": 1,
            "TEXCOORD_0": 3
          },
          "indices": 0,
          "material": 5,
          "mode": 4
        }
      ]
    },
    {
      "name": "eye_base",
      "primitives": [
        {
          "attributes": {
            "NORMAL": 6,
            "POSITION": 5,
            "TEXCOORD_0": 7
          },
          "indices": 4,
          "material": 1,
          "mode": 4
        }
      ]
    },
    {
      "name": "head",
      "primitives": [
        {
          "attributes": {
            "NORMAL": 10,
            "POSITION": 9,
            "TEXCOORD_0": 11
          },
          "indices": 8,
          "material": 3,
          "mode": 4
        }
      ]
    },
    {
      "name": "body",
      "primitives": [
        {
          "attributes": {
            "NORMAL": 14,
            "POSITION": 13,
            "TEXCOORD_0": 15
          },
          "indices": 12,
          "material": 0,
          "mode": 4
        }
      ]
    },
    {
      "name": "gauntlet",
      "primitives": [
        {
          "attributes": {
            "NORMAL": 18,
            "POSITION": 17,
            "TEXCOORD_0": 19
          },
          "indices": 16,
          "material": 2,
          "mode": 4
        }
      ]
    },
    {
      "name": "helm",
      "primitives": [
        {
          "attributes": {
            "NORMAL": 22,
            "POSITION": 21,
            "TEXCOORD_0": 23
          },
          "indices": 20,
          "material": 4,
          "mode": 4
        }
      ]
    }
  ],
  "nodes": [
    {
      "children": [
        1,
        3,
        5,
        7,
        9,
        11
      ],
      "name": "root",
      "scale": [
        33.5400390625,
        33.5400390625,
        33.5400390625
      ],
      "translation": [
        -0.00048828125,
        33.4833984375,
        0.00634765625
      ]
    },
    {
      "children": [
        2
      ],
      "name": "jumpkit"
    },
    {
      "mesh": 0,
      "name": "jumpkit"
    },
    {
      "children": [
        4
      ],
      "name": "eye_base"
    },
    {
      "mesh": 1,
      "name": "eye_base"
    },
    {
      "children": [
        6
      ],
      "name": "head"
    },
    {
      "mesh": 2,
      "name": "head"
    },
    {
      "children": [
        8
      ],
      "name": "body"
    },
    {
      "mesh": 3,
      "name": "body"
    },
    {
      "children": [
        10
      ],
      "name": "gauntlet"
    },
    {
      "mesh": 4,
      "name": "gauntlet"
    },
    {
      "children": [
        12
      ],
      "name": "helm"
    },
    {
      "mesh": 5,
      "name": "helm"
    }
  ],
  "samplers": [
    {
      "magFilter": 9729,
      "minFilter": 9985,
      "wrapS": 10497,
      "wrapT": 10497
    }
  ],
  "scene": 0,
  "scenes": [
    {
      "name": "Scene",
      "nodes": [
        0
      ]
    }
  ],
  "textures": [
    {
      "sampler": 0,
      "source": 0
    },
    {
      "sampler": 0,
      "source": 1
    },
    {
      "sampler": 0,
      "source": 2
    },
    {
      "sampler": 0,
      "source": 3
    },
    {
      "sampler": 0,
      "source": 4
    },
    {
      "sampler": 0,
      "source": 5
    },
    {
      "sampler": 0,
      "source": 6
    },
    {
      "sampler": 0,
      "source": 7
    },
    {
      "sampler": 0,
      "source": 8
    },
    {
      "sampler": 0,
      "source": 9
    },
    {
      "sampler": 0,
      "source": 10
    },
    {
      "sampler": 0,
      "source": 11
    },
    {
      "sampler": 0,
      "source": 12
    },
    {
      "sampler": 0,
      "source": 13
    },
    {
      "sampler": 0,
      "source": 14
    },
    {
      "sampler": 0,
      "source": 15
    },
    {
      "sampler": 0,
      "source": 16
    },
    {
      "sampler": 0,
      "source": 17
    },
    {
      "sampler": 0,
      "source": 18
    },
    {
      "sampler": 0,
      "source": 19
    }
  ]
}